# xmcd
#
# Track frame offsets:
#	150
#	18270
#	37295
#	55530
#	74377
#	100180
#	121910
#	142212
#	160325
#	180197
#	187107
#	216612
#
# Disc length: 3359 seconds
#
# Revision: 21
# Processed by: cddbd v1.5.2PL0 Copyright (c) Steve Scherf et al.
# Submitted via: EasyCDDAExtractor 15.3.0.1
#
DISCID=b10d1d0c
DTITLE=Christina Aguilera - My Kind Of Christmas
DYEAR=2000
DGENRE=Pop
TTITLE0=Christmas Time
TTITLE1=This Year
TTITLE2=Have Yourself A Merry Little Christmas
TTITLE3=Angels We Have Heard On High
TTITLE4=Merry Christmas, Baby
TTITLE5=Oh Holy Night
TTITLE6=These Are The Special Times
TTITLE7=This Christmas
TTITLE8=The Christmas Song
TTITLE9=Xtina's Xmas
TTITLE10=The Christmas Song (Holiday Remix)
TTITLE11=Enhanced CD Datatrack, The Christmas Song Video
EXTD=YEAR: 2000
EXTT0=
EXTT1=
EXTT2=
EXTT3=
EXTT4=
EXTT5=
EXTT6=
EXTT7=
EXTT8=
EXTT9=
EXTT10=
EXTT11=
PLAYORDER=
